PathFileType  4	(X/Y/Z) C:\Users\antoi\Documents\MyRepositories\mobilecap\ResultsAnalysis
DataRate	CameraRate	NumFrames	NumMarkers	Units	OrigDataRate	OrigDataStartFrame	OrigNumFrames
100.0	100.0	4	51	mm	100.0	1	150
Frame#	Time	r_knee			r_shank_antsup			r_ankle			r_calc			r_5meta			r_toe			L_knee			L_shank_antsup			L_ankle			L_calc			L_5meta			L_toe			r_sh2			r_sh3			r_sh4			L_sh2			L_sh3			r_thigh1			r_thigh2			r_thigh3			r_thigh4			r_thigh5			L_thigh1			L_thigh2			L_thigh3			L_thigh4			r.ASIS			r.PSIS			L.ASIS			L.PSIS			C7			R_Shoulder			L_Shoulder			R_Sternum			L_Sternum			R_humerus			R_elbow_med			R_elbow_lat			R_forearm			R_wrist_radius			R_wrist_ulna			L_humerus			L_elbow_med			L_elbow_lat			L_forearm			L_wrist_radius			L_wrist_ulna			R_HJC			L_HJC			R_HJC_reg			L_HJC_reg			
		X1	Y1	Z1	X2	Y2	Z2	X3	Y3	Z3	X4	Y4	Z4	X5	Y5	Z5	X6	Y6	Z6	X7	Y7	Z7	X8	Y8	Z8	X9	Y9	Z9	X10	Y10	Z10	X11	Y11	Z11	X12	Y12	Z12	X13	Y13	Z13	X14	Y14	Z14	X15	Y15	Z15	X16	Y16	Z16	X17	Y17	Z17	X18	Y18	Z18	X19	Y19	Z19	X20	Y20	Z20	X21	Y21	Z21	X22	Y22	Z22	X23	Y23	Z23	X24	Y24	Z24	X25	Y25	Z25	X26	Y26	Z26	X27	Y27	Z27	X28	Y28	Z28	X29	Y29	Z29	X30	Y30	Z30	X31	Y31	Z31	X32	Y32	Z32	X33	Y33	Z33	X34	Y34	Z34	X35	Y35	Z35	X36	Y36	Z36	X37	Y37	Z37	X38	Y38	Z38	X39	Y39	Z39	X40	Y40	Z40	X41	Y41	Z41	X42	Y42	Z42	X43	Y43	Z43	X44	Y44	Z44	X45	Y45	Z45	X46	Y46	Z46	X47	Y47	Z47	X48	Y48	Z48	X49	Y49	Z49	X50	Y50	Z50	X51	Y51	Z51	

1	0.00000000	84.74151	486.71389	-99.40694	133.37419	452.58766	-111.22859	134.54430	90.21231	-125.85386	83.49685	55.76204	-177.05559	281.22549	41.90539	-88.69996	310.95683	75.03119	-143.39818	-266.80242	459.37074	-392.64450	-291.19473	371.22888	-406.78990	-510.84797	129.86073	-349.28718	-581.07375	113.50178	-294.04400	-419.65898	35.07837	-365.39018	-370.10294	49.05178	-316.29929	157.84246	340.96408	-123.86789	72.58425	433.03473	-68.35855	96.25310	319.74742	-67.06109	-359.09066	431.05345	-408.62089	-432.88882	334.20010	-400.45893	40.61830	779.45288	-164.52414	91.25804	681.52340	-160.62904	90.62100	658.87552	-94.45762	-5.07755	760.84931	-62.28852	46.30103	659.47841	-60.29246	-113.38643	747.74207	-421.82017	-158.25773	613.37719	-421.70535	-219.81955	781.08886	-409.13817	-262.04277	653.21125	-387.80963	-8.08642	916.01515	-135.74522	-208.24268	953.21418	-189.77406	-34.44181	888.90929	-369.63697	-218.23524	948.32889	-286.22290	-156.45178	1410.68952	-225.41156	-111.50025	1352.82249	-62.75196	-82.57490	1371.30277	-387.48313	-48.84798	1308.21714	-211.24411	-44.13069	1308.62961	-249.41423	-146.85100	1113.57298	6.76174	-208.89498	1031.64136	-32.77259	-187.57066	1028.75136	24.14649	-134.96938	893.56254	41.83291	-101.51358	793.39579	28.41674	-143.24433	790.35313	56.58408	-62.10211	1149.79941	-486.85711	-102.69723	1036.73348	-459.36081	-76.93672	1050.42706	-511.01031	25.99195	946.51021	-524.01947	95.13070	862.80753	-500.78542	66.48146	844.79189	-529.33451	-90.39404	835.68187	-153.77982	-124.17873	826.88491	-341.22842	-84.96801	838.53997	-156.80142	-101.06205	830.67168	-312.14316	
2	0.01000000	98.53284	488.65907	-99.44257	146.17570	453.01040	-112.00073	136.82113	90.20093	-126.10835	83.98139	56.41744	-176.95156	282.08590	40.15331	-89.00670	312.06895	71.40864	-144.61853	-250.84809	456.83454	-391.43081	-277.47015	369.88776	-406.41768	-504.66092	135.57398	-350.94136	-575.83401	122.95420	-296.09470	-418.18411	35.17096	-365.69555	-368.92007	47.83665	-316.88635	166.72172	340.91394	-124.25500	85.74153	435.32975	-67.83733	105.94618	321.40748	-66.69085	-343.32323	431.70934	-407.99616	-420.12020	337.25316	-400.65829	52.45008	782.19344	-165.53109	104.73925	685.13738	-161.64279	105.80016	663.27282	-95.48140	9.91370	764.52487	-62.41893	61.52577	663.47053	-60.63246	-99.42890	745.67686	-419.71916	-143.38888	610.95777	-420.03012	-206.57667	778.49743	-407.67974	-247.59165	650.03420	-386.18147	4.59706	918.58858	-134.74955	-195.86337	953.61156	-190.81023	-20.92759	888.02729	-367.86294	-205.45953	947.25971	-287.30157	-143.60172	1410.18684	-221.10398	-99.65291	1350.46528	-58.76688	-68.62195	1372.19734	-383.30470	-36.34758	1307.37184	-207.24255	-31.49535	1308.16759	-245.38683	-134.08295	1110.41335	8.29092	-195.93154	1028.68868	-32.32667	-174.69681	1025.42361	24.81686	-123.25350	889.95254	42.17827	-90.26724	789.62195	28.68872	-132.15761	786.85154	56.50935	-51.85333	1150.65073	-484.21653	-93.79237	1038.18056	-456.72867	-68.15778	1051.66842	-508.48785	32.60676	945.79459	-522.46623	99.72730	860.74407	-500.06105	71.03781	843.28263	-528.54055	-77.52863	837.54119	-152.10939	-110.09257	825.68484	-339.54847	-71.82735	840.46807	-154.88248	-87.24544	830.27665	-309.86976	
3	0.02000000	111.79762	490.34531	-99.46785	158.56422	453.23718	-112.78720	138.94087	90.19296	-126.37127	84.43722	56.99405	-176.87414	282.86689	38.57437	-89.25472	313.09359	68.10976	-145.69207	-234.41888	454.29357	-390.34288	-263.20396	368.51063	-406.08257	-497.92704	141.56990	-352.51293	-569.93230	132.87532	-298.04927	-416.58405	35.55605	-366.01906	-367.51547	46.75484	-317.42442	175.37350	340.70768	-124.73432	98.53712	437.35491	-67.33560	115.43314	322.87033	-66.31843	-326.99167	432.33207	-407.45985	-406.77743	340.34074	-400.89817	64.33989	784.62389	-166.21080	118.07902	688.27738	-162.35319	120.50657	667.05152	-96.22452	24.60529	767.81841	-62.38497	76.23275	666.93661	-60.80504	-85.43260	743.80802	-417.62798	-128.29379	608.67918	-418.40373	-193.28142	775.92059	-406.13421	-232.90157	646.85628	-384.52076	17.30995	921.15697	-133.77823	-183.45459	954.10772	-191.67902	-7.49078	887.34456	-366.10117	-192.71398	946.38445	-288.21749	-130.82825	1409.80010	-216.89038	-87.83263	1348.24496	-54.86077	-54.66485	1373.15960	-379.14469	-23.88484	1306.63310	-203.27009	-18.87073	1307.78972	-241.38945	-121.27913	1107.40681	9.78921	-182.89710	1025.87876	-31.89283	-161.75632	1022.23880	25.47260	-111.40283	886.52454	42.53111	-78.88893	786.01788	28.94942	-120.94856	783.50599	56.44172	-41.52124	1151.61644	-481.58620	-84.91599	1039.77988	-454.15280	-59.32024	1053.03888	-505.99472	39.14544	945.14938	-520.90011	104.19803	858.70434	-499.29978	75.41347	841.83918	-527.69972	-64.64991	839.43580	-150.46244	-96.10666	824.69432	-337.87662	-58.67123	842.42368	-153.01443	-73.50659	830.06789	-307.63053	
4	0.03000000	124.11625	491.57506	-99.47818	170.19554	453.12091	-113.57837	140.77713	90.19563	-126.65105	84.84206	57.43586	-176.84402	283.50999	37.29841	-89.41068	313.96301	65.37786	-146.52385	-217.13286	451.76141	-389.47823	-247.95952	367.08403	-405.81171	-490.17675	148.08693	-353.93279	-562.78342	143.64823	-299.82571	-414.74021	36.50805	-366.36844	-365.72186	45.93717	-317.87847	183.59066	340.22959	-125.35837	110.63612	438.90010	-66.88639	124.49734	323.97400	-65.96699	-309.63956	432.90579	-407.08047	-392.39142	343.49824	-401.19986	76.35528	786.52348	-166.32393	131.13991	690.58776	-162.53923	134.35661	669.74226	-96.47904	38.75151	770.44106	-62.06349	90.00695	669.48507	-60.68870	-71.37671	742.30266	-415.56312	-112.79852	606.67078	-416.87702	-179.90536	773.38901	-404.42465	-217.79321	643.68868	-382.81135	30.05932	923.69544	-132.85527	-171.00292	954.79014	-192.23069	5.78461	887.02386	-364.36948	-180.03795	945.86068	-288.82023	-118.19177	1409.62917	-212.84946	-76.06511	1346.27928	-51.10170	-40.72407	1374.24974	-375.03341	-11.49099	1306.09500	-199.36114	-6.27646	1307.57502	-237.46034	-108.41705	1104.68552	11.23098	-169.73120	1023.32923	-31.47156	-148.69985	1019.32124	26.10218	-99.31535	883.42741	42.89377	-67.27132	782.73137	29.19171	-109.51558	780.45419	56.38554	-31.03930	1152.78877	-478.97586	-76.08283	1041.65204	-451.69386	-50.36914	1054.64306	-503.56229	45.56299	944.63642	-519.30883	108.45026	856.71026	-498.46520	79.48205	840.52171	-526.77751	-51.76166	841.38156	-148.86028	-82.32994	824.08628	-336.22315	-45.51095	844.43787	-151.23737	-59.93969	830.19312	-305.45019	
